<?xml version="1.0" standalone="no"?>
<!DOCTYPE svg PUBLIC "-//W3C//DTD SVG 20010904//EN"
 "http://www.w3.org/TR/2001/REC-SVG-20010904/DTD/svg10.dtd">
<svg version="1.0" xmlns="http://www.w3.org/2000/svg"
 width="256.000000pt" height="256.000000pt" viewBox="0 0 256.000000 256.000000"
 preserveAspectRatio="xMidYMid meet">

<g transform="translate(0.000000,256.000000) scale(0.100000,-0.100000)"
fill="#FFFFFF" stroke="none">
<path d="M779 2343 c-15 -9 -34 -28 -43 -43 -12 -22 -30 -31 -82 -44 -73 -19
-178 -64 -224 -96 -24 -17 -38 -20 -77 -15 -38 5 -55 2 -80 -14 -44 -27 -67
-75 -59 -120 5 -30 -2 -52 -44 -136 -28 -55 -58 -131 -67 -168 -13 -54 -22
-71 -43 -84 -79 -46 -79 -160 0 -206 21 -13 29 -29 39 -74 14 -63 67 -185 101
-233 17 -24 20 -38 15 -77 -5 -38 -2 -55 14 -80 28 -45 74 -67 124 -59 32 5
48 2 84 -19 51 -31 52 -21 -18 -170 l-49 -105 -177 -2 c-155 -3 -177 -5 -187
-21 -16 -25 4 -51 43 -55 29 -3 31 -6 31 -42 0 -36 -2 -39 -31 -42 -39 -4 -59
-30 -43 -56 11 -16 84 -17 1269 -20 921 -1 1261 1 1271 9 22 18 20 1201 -1
1219 -10 8 -45 11 -109 8 -76 -2 -100 -7 -122 -24 -56 -41 -66 -66 -76 -176
-18 -221 -91 -390 -232 -536 -56 -59 -145 -132 -160 -132 -3 0 -6 61 -6 135 0
127 1 135 20 135 17 0 19 -8 22 -71 2 -55 7 -74 20 -83 13 -8 23 -8 35 0 14 9
19 28 21 83 3 71 3 71 31 71 33 0 54 21 49 47 -4 21 -214 153 -243 152 -25 0
-214 -118 -229 -141 -16 -26 4 -52 42 -56 l31 -3 3 -71 c2 -55 7 -73 21 -82
12 -8 22 -8 35 0 13 9 18 28 20 83 3 63 5 71 22 71 19 0 20 -8 20 -160 l0
-160 -37 -16 c-78 -33 -191 -56 -300 -61 l-111 -6 -51 107 c-69 148 -68 139
-20 170 33 23 48 26 79 21 83 -14 145 41 145 130 0 40 10 69 48 145 26 52 55
126 64 163 13 55 21 71 44 84 31 18 59 68 59 103 0 36 -28 85 -60 103 -17 11
-32 30 -36 45 -14 68 -59 182 -93 237 -32 53 -35 64 -28 95 20 78 -49 156
-128 146 -34 -5 -55 2 -140 44 -55 28 -131 58 -168 67 -55 13 -71 21 -84 44
-32 54 -112 74 -164 42z m91 -78 c26 -32 -13 -81 -47 -59 -35 22 -23 74 17 74
10 0 23 -7 30 -15z m-117 -104 c50 -53 124 -52 176 1 l30 31 63 -17 c35 -9 95
-34 133 -55 70 -37 70 -37 75 -87 3 -27 11 -59 18 -71 17 -31 63 -53 111 -53
38 0 42 -3 71 -52 17 -29 42 -90 56 -136 l27 -83 -32 -31 c-54 -53 -54 -123 1
-177 l31 -30 -17 -63 c-9 -35 -34 -95 -55 -133 -37 -70 -37 -70 -87 -75 -27
-3 -59 -11 -71 -18 -31 -17 -53 -63 -53 -110 0 -38 -21 -64 -59 -74 -10 -3
-241 474 -241 498 0 7 7 25 15 40 54 103 -65 217 -165 158 -55 -33 -75 -100
-45 -158 8 -15 15 -33 15 -40 0 -27 -231 -501 -243 -498 -39 10 -57 33 -57 73
0 79 -49 129 -127 129 -36 0 -41 4 -70 53 -18 28 -44 89 -59 135 l-27 82 31
31 c53 52 54 126 1 176 -16 16 -29 35 -29 43 0 29 56 175 83 218 25 38 31 42
68 42 79 0 129 49 129 127 0 36 4 41 53 70 46 28 185 82 212 83 6 0 22 -13 38
-29z m-393 -105 c19 -23 8 -61 -18 -64 -44 -7 -67 32 -36 62 19 20 38 20 54 2z
m1014 -2 c31 -30 8 -69 -36 -62 -26 3 -37 41 -18 64 16 18 35 18 54 -2z
m-1224 -509 c26 -32 -13 -81 -47 -59 -35 22 -23 74 17 74 10 0 23 -7 30 -15z
m720 0 c26 -32 -13 -81 -47 -59 -35 22 -23 74 17 74 10 0 23 -7 30 -15z m720
0 c26 -32 -13 -81 -47 -59 -35 22 -23 74 17 74 10 0 23 -7 30 -15z m890 -565
c0 -533 0 -540 -20 -540 -20 0 -20 7 -20 540 0 533 0 540 20 540 20 0 20 -7
20 -540z m-120 -10 c0 -523 0 -530 -20 -530 -20 0 -20 7 -20 511 0 495 3 549
30 549 6 0 10 -196 10 -530z m-1389 171 c133 -284 130 -254 29 -281 -41 -11
-44 -10 -72 19 -31 32 -82 47 -122 37 -13 -3 -37 -20 -54 -37 l-31 -32 -66 18
c-36 9 -65 18 -65 20 0 1 38 82 84 181 46 98 99 214 119 257 22 47 42 77 49
75 6 -2 65 -118 129 -257z m855 -46 c17 -13 15 -14 -31 -14 -46 0 -48 1 -31
14 11 8 25 15 31 15 6 0 20 -7 31 -15z m-1468 -57 c28 -28 1 -75 -37 -63 -11
3 -23 15 -26 26 -12 38 35 65 63 37z m1022 -3 c27 -32 -23 -82 -55 -55 -15 13
-20 51 -8 63 12 12 50 7 63 -8z m860 -290 c0 -298 0 -305 -20 -305 -20 0 -20
7 -20 270 0 232 2 274 17 305 9 19 18 35 20 35 2 0 3 -137 3 -305z m-120 -95
c0 -203 -1 -210 -20 -210 -19 0 -20 7 -20 192 0 164 2 194 17 210 9 10 18 18
20 18 1 0 3 -94 3 -210z m-1250 175 c26 -32 -13 -81 -47 -59 -35 22 -23 74 17
74 10 0 23 -7 30 -15z m-212 -42 c49 -13 66 -22 79 -44 18 -31 68 -59 103 -59
35 0 85 28 102 58 14 24 32 32 99 50 45 13 83 21 85 20 4 -4 94 -200 94 -204
0 -2 -171 -4 -381 -4 -209 0 -379 4 -377 9 2 4 23 52 47 105 39 85 47 97 65
91 12 -3 49 -13 84 -22z m1342 -193 c0 -143 -1 -150 -20 -150 -19 0 -20 7 -20
132 0 108 3 135 17 150 9 10 18 18 20 18 1 0 3 -67 3 -150z m-120 -45 c0 -98
-1 -105 -20 -105 -19 0 -20 7 -20 93 0 87 8 117 32 117 4 0 8 -47 8 -105z
m-120 -30 c0 -68 -2 -75 -20 -75 -18 0 -20 7 -20 69 0 65 5 77 33 80 4 1 7
-33 7 -74z m-120 -20 c0 -48 -2 -55 -20 -55 -17 0 -20 7 -20 48 0 51 5 62 27
62 9 0 13 -16 13 -55z m-120 -10 c0 -38 -3 -45 -20 -45 -17 0 -20 7 -20 39 0
35 8 48 33 50 4 1 7 -19 7 -44z m-1320 -5 c0 -33 -3 -40 -20 -40 -17 0 -20 7
-20 40 0 33 3 40 20 40 17 0 20 -7 20 -40z m130 35 c0 -12 -35 -75 -42 -75 -4
0 -8 18 -8 40 0 36 3 40 25 40 14 0 25 -2 25 -5z m110 -35 c0 -36 -2 -40 -25
-40 -29 0 -31 10 -10 50 21 41 35 37 35 -10z m120 0 c0 -33 -3 -40 -20 -40
-17 0 -20 7 -20 40 0 33 3 40 20 40 17 0 20 -7 20 -40z m120 0 c0 -33 -3 -40
-20 -40 -17 0 -20 7 -20 40 0 33 3 40 20 40 17 0 20 -7 20 -40z m120 0 c0 -33
-3 -40 -20 -40 -17 0 -20 7 -20 40 0 33 3 40 20 40 17 0 20 -7 20 -40z m120 0
c0 -33 -3 -40 -20 -40 -17 0 -20 7 -20 40 0 33 3 40 20 40 17 0 20 -7 20 -40z
m120 0 c0 -33 -3 -40 -20 -40 -17 0 -20 7 -20 40 0 33 3 40 20 40 17 0 20 -7
20 -40z m120 0 c0 -33 -3 -40 -20 -40 -17 0 -20 7 -20 40 0 33 3 40 20 40 17
0 20 -7 20 -40z m115 10 c21 -40 19 -50 -10 -50 -22 0 -25 4 -25 40 0 47 14
51 35 10z m125 -10 c0 -49 -11 -51 -33 -5 -22 45 -22 45 8 45 23 0 25 -4 25
-40z"/>
<path d="M12 268 c-16 -16 -15 -43 2 -57 10 -8 350 -10 1271 -9 1185 3 1258 4
1269 21 8 12 8 22 0 35 -11 16 -84 17 -1271 20 -971 1 -1262 -1 -1271 -10z"/>
</g>
</svg>
